<?xml version="1.0" standalone="no"?>
<!DOCTYPE svg PUBLIC "-//W3C//DTD SVG 20010904//EN"
 "http://www.w3.org/TR/2001/REC-SVG-20010904/DTD/svg10.dtd">
<svg version="1.0" xmlns="http://www.w3.org/2000/svg"
 width="169.000000pt" height="400.000000pt" viewBox="0 0 169.000000 400.000000"
 preserveAspectRatio="xMidYMid meet">

<g transform="translate(0.000000,400.000000) scale(0.100000,-0.100000)"
fill="#000000" stroke="none">
<path d="M685 3923 c-37 -9 -106 -58 -111 -79 -3 -13 10 -49 37 -98 34 -63 39
-80 28 -87 -12 -8 -12 -11 1 -19 13 -9 13 -11 0 -20 -19 -13 -37 -13 -45 0 -3
6 1 13 10 16 13 5 14 9 4 14 -17 11 -34 -9 -36 -42 -1 -34 12 -35 99 -8 34 11
64 20 66 20 2 0 -5 -11 -15 -24 -12 -16 -22 -21 -29 -15 -20 16 -44 -1 -44
-33 0 -18 -4 -27 -11 -23 -5 4 -29 -12 -52 -36 -35 -35 -43 -39 -46 -24 -2 14
-5 15 -12 4 -8 -12 -10 -12 -18 0 -5 8 -11 9 -15 3 -6 -11 -17 -10 -53 2 -22
7 -28 18 -23 41 4 25 -78 -70 -147 -170 -140 -200 -163 -236 -163 -250 0 -17
40 -35 360 -160 80 -31 148 -60 152 -64 4 -3 14 -44 21 -91 19 -111 57 -253
71 -262 6 -4 21 -8 34 -8 12 0 22 -5 22 -10 0 -6 -15 -9 -35 -7 -19 2 -32 1
-30 -3 3 -4 16 -7 30 -7 35 -1 38 -6 24 -37 -7 -15 -23 -29 -38 -32 -14 -3
-35 -7 -45 -9 -10 -2 -33 3 -50 11 l-31 15 25 -20 c16 -13 40 -21 66 -21 l42
0 12 -81 c12 -74 10 -142 -6 -197 -5 -17 -3 -21 9 -16 10 3 18 -2 22 -16 11
-36 -24 -1100 -45 -1345 -19 -217 -64 -385 -104 -385 -8 0 -19 -7 -23 -15 -9
-16 -124 -45 -179 -45 -17 0 -38 -7 -45 -16 -17 -20 -18 -129 -2 -145 17 -17
146 -13 218 8 33 9 82 16 109 14 26 -1 63 3 81 9 28 9 33 16 38 53 3 23 14 49
24 57 15 12 17 22 11 50 -4 19 -8 274 -8 565 -1 446 2 573 19 800 12 149 21
293 21 320 0 28 7 61 14 74 l13 24 6 -24 c3 -13 11 -85 18 -159 17 -197 3
-1546 -16 -1573 -14 -20 -10 -43 12 -65 7 -7 13 -33 13 -56 0 -55 17 -70 83
-71 29 -1 70 -7 92 -15 23 -8 79 -14 133 -15 87 0 95 2 113 24 22 27 26 98 7
123 -9 11 -43 19 -107 27 -68 7 -97 15 -108 28 -8 10 -12 12 -8 6 5 -12 -6
-17 -27 -14 -4 0 -4 -7 -1 -15 4 -11 2 -15 -7 -12 -22 7 -23 26 -1 33 18 5 19
8 7 21 -20 19 -33 66 -46 159 -41 305 -50 673 -29 1190 14 332 26 438 52 443
10 2 17 -3 17 -12 0 -9 5 -16 11 -16 8 0 10 14 6 40 -5 41 7 52 30 29 18 -18
37 0 20 19 -23 27 -88 162 -78 162 6 0 13 -5 16 -10 4 -6 22 2 46 21 l39 31 0
-30 c0 -28 20 -48 34 -35 3 4 6 26 6 49 0 38 4 45 31 59 17 9 33 14 37 11 3
-3 -5 -374 -17 -824 -26 -970 -26 -962 -7 -962 19 0 22 49 46 800 11 349 23
721 27 826 l6 192 59 28 c109 52 106 79 -17 148 -48 26 -89 54 -92 62 -4 11
-9 12 -19 4 -9 -8 -18 -8 -33 0 -36 19 -23 3 17 -20 33 -20 35 -23 17 -30 -27
-10 -94 35 -95 64 0 4 7 6 15 2 8 -3 15 -3 15 0 0 14 -35 64 -45 64 -13 0
-125 109 -125 121 0 5 -11 14 -25 19 -22 8 -26 15 -25 48 0 4 9 7 19 7 22 0
51 23 51 41 0 12 4 12 20 2 16 -11 23 -9 40 10 14 15 19 29 15 42 -4 12 -2 20
4 20 6 0 19 16 28 36 15 31 15 36 3 44 -11 7 -12 10 -2 10 9 0 11 7 7 20 -3
11 -2 20 3 20 14 0 2 43 -16 57 -11 9 -12 16 -4 26 14 17 4 89 -12 84 -6 -2
-16 12 -21 32 -8 28 -16 35 -31 33 -17 -2 -20 3 -19 30 0 27 -4 34 -22 36 -14
2 -23 10 -23 22 0 19 -31 33 -67 30 -16 -1 -23 4 -23 16 0 31 -29 43 -63 26
-23 -11 -32 -12 -35 -4 -6 19 -38 14 -53 -9 -9 -13 -20 -18 -31 -14 -28 11
-22 19 35 47 57 28 141 87 135 94 -3 2 -31 -5 -63 -16 -32 -11 -60 -19 -61
-17 -2 1 -20 47 -42 102 -39 103 -47 111 -97 98z m183 -449 c12 -8 22 -21 21
-27 -1 -7 1 -19 5 -28 10 -22 1 -75 -12 -72 -6 2 -9 -6 -7 -17 3 -17 -2 -20
-30 -20 -18 0 -40 -3 -49 -6 -12 -4 -16 0 -16 15 0 12 -3 21 -7 21 -5 0 -13
11 -20 25 -12 26 -5 33 14 14 15 -15 43 -4 43 16 0 21 -27 30 -45 15 -13 -11
-14 -8 -11 19 2 17 9 38 16 46 16 20 69 19 98 -1z m-303 -55 c12 -18 -3 -22
-20 -5 -14 14 -14 16 -1 16 8 0 18 -5 21 -11z m-65 -60 c0 -11 -10 -29 -22
-39 -19 -15 -21 -22 -12 -37 7 -10 19 -17 28 -17 20 2 21 -15 1 -30 -18 -13
-9 -56 12 -56 10 0 11 -4 3 -19 -12 -24 -2 -54 15 -47 7 2 15 -4 18 -15 4 -15
12 -20 29 -17 14 2 31 -6 45 -20 12 -13 27 -21 32 -17 6 3 11 -1 11 -9 0 -8 6
-16 13 -19 6 -2 1 -2 -13 1 -22 5 -41 5 -92 2 -77 -4 -221 38 -306 90 -41 25
-41 26 79 146 66 67 100 94 117 94 17 0 23 4 18 15 -3 9 0 15 9 15 9 0 15 -9
15 -21z m373 -147 c15 -4 6 -42 -12 -53 -11 -7 -16 -20 -14 -30 4 -14 0 -16
-16 -12 -23 6 -29 23 -8 23 6 1 0 8 -15 16 -58 31 -11 71 65 56z m82 -101
c-18 -36 -21 -51 -12 -51 7 0 19 6 26 13 12 10 13 8 7 -8 -18 -54 -42 -105
-48 -105 -4 0 -14 12 -22 27 -12 23 -12 30 0 48 11 17 11 25 -1 49 -13 24 -13
30 0 49 16 23 68 49 73 36 2 -4 -8 -30 -23 -58z m-198 27 c16 -13 17 -35 3
-40 -15 -5 -21 -47 -9 -66 7 -11 8 -29 2 -52 l-9 -35 -27 45 c-26 44 -26 45
-6 48 24 4 23 21 -5 86 l-17 38 28 -7 c15 -3 34 -11 40 -17z m73 -32 c0 -3 -4
-8 -10 -11 -5 -3 -10 -1 -10 4 0 6 5 11 10 11 6 0 10 -2 10 -4z m-40 -86 c0
-5 -4 -10 -10 -10 -5 0 -10 5 -10 10 0 6 5 10 10 10 6 0 10 -4 10 -10z m40 0
c0 -5 -5 -10 -11 -10 -5 0 -7 5 -4 10 3 6 8 10 11 10 2 0 4 -4 4 -10z m50 0
c0 -5 -4 -10 -10 -10 -5 0 -10 5 -10 10 0 6 5 10 10 10 6 0 10 -4 10 -10z
m105 -20 c3 -5 -1 -10 -10 -10 -9 0 -13 5 -10 10 3 6 8 10 10 10 2 0 7 -4 10
-10z m154 -283 c47 -24 117 -63 154 -87 76 -48 75 -64 -4 -54 -38 5 -50 3 -67
-14 -11 -11 -21 -25 -23 -31 -3 -7 -30 -15 -62 -18 -31 -3 -57 -11 -57 -17 0
-6 -5 -4 -9 4 -8 12 -31 201 -31 247 0 19 3 18 99 -30z m-194 -125 c-3 -3 -11
0 -18 7 -9 10 -8 11 6 5 10 -3 15 -9 12 -12z m-69 -32 c23 0 16 -20 -8 -21
l-23 -2 23 -4 c12 -2 22 -11 22 -18 0 -8 23 -21 55 -31 30 -10 55 -22 55 -28
0 -12 -124 -14 -150 -3 -8 3 -26 8 -40 10 -21 4 -20 4 6 6 18 0 34 8 37 16 5
11 1 12 -19 5 -44 -17 -51 -9 -9 11 22 10 35 19 29 19 -7 0 -14 12 -17 26 -3
19 -1 24 10 20 8 -3 21 -6 29 -6z m187 -75 c44 -9 59 -25 22 -25 -17 0 -40
-13 -62 -35 -36 -36 -55 -39 -46 -6 3 12 11 17 19 14 9 -3 14 2 14 16 0 12 -7
24 -15 27 -24 10 -17 27 8 21 12 -3 39 -9 60 -12z m-95 -62 c-2 -9 -18 -21
-36 -27 -24 -9 -30 -14 -21 -23 8 -8 4 -15 -17 -27 l-29 -16 27 6 c23 5 29 2
38 -20 10 -28 29 -33 48 -14 10 10 15 10 22 -2 11 -18 -6 -50 -27 -50 -12 0
-11 4 7 20 13 11 18 20 13 20 -6 0 -33 -20 -60 -44 l-49 -44 -47 45 c-30 28
-46 51 -43 60 3 8 9 12 13 10 5 -2 25 -12 46 -22 34 -16 40 -16 53 -3 13 13
11 14 -16 10 -29 -4 -30 -3 -30 32 0 32 -3 36 -25 36 -14 0 -25 5 -25 11 0 6
12 10 28 9 48 -4 59 -1 43 9 -8 5 -30 7 -50 5 -34 -4 -34 -4 -11 7 21 9 90 23
138 28 8 0 12 -6 10 -16z m56 -53 c-17 -34 -30 -44 -38 -31 -5 8 36 61 48 61
2 0 -2 -13 -10 -30z m-198 -121 c19 -22 19 -22 -3 -10 -13 6 -23 16 -23 21 0
15 5 12 26 -11z m-165 -1931 c47 -26 52 -42 12 -37 -5 1 -7 5 -6 10 2 4 -3 6
-11 3 -14 -5 -46 20 -46 37 0 13 8 11 51 -13z m439 -40 c0 -5 -4 -7 -9 -4 -5
4 -11 1 -13 -6 -5 -13 -28 -2 -28 13 0 6 5 7 10 4 6 -3 10 1 10 11 0 13 3 14
15 4 8 -7 15 -17 15 -22z"/>
<path d="M844 3405 c-4 -9 -2 -21 4 -27 15 -15 44 -1 40 19 -4 23 -36 29 -44
8z"/>
<path d="M815 3380 c-4 -7 -1 -16 6 -21 17 -10 26 8 11 23 -6 6 -12 6 -17 -2z"/>
<path d="M895 2480 c3 -4 -1 -11 -7 -13 -7 -3 4 -6 25 -6 45 -1 47 4 7 18 -17
5 -28 6 -25 1z"/>
<path d="M900 2410 c0 -13 11 -13 30 0 12 8 11 10 -7 10 -13 0 -23 -4 -23 -10z"/>
<path d="M550 3680 c-6 -11 -8 -20 -6 -20 3 0 10 9 16 20 6 11 8 20 6 20 -3 0
-10 -9 -16 -20z"/>
<path d="M565 3660 c-4 -7 -16 -9 -28 -6 -14 3 -17 2 -9 -6 8 -8 5 -20 -11
-42 -12 -17 -14 -25 -6 -19 9 7 19 10 22 6 4 -3 13 0 22 7 11 9 12 16 5 26 -8
9 -6 15 7 22 10 6 15 13 11 17 -3 3 -9 1 -13 -5z"/>
<path d="M499 3618 c-12 -23 -12 -23 10 -4 23 21 26 26 11 26 -5 0 -15 -10
-21 -22z"/>
<path d="M468 3583 c6 -2 12 -11 12 -19 0 -8 10 -14 23 -14 18 0 19 -2 7 -10
-12 -8 -9 -10 13 -10 26 0 26 1 10 18 -10 10 -23 17 -29 15 -6 -2 -14 3 -17
11 -4 9 -12 16 -19 15 -10 0 -10 -2 0 -6z"/>
<path d="M436 3537 c3 -9 13 -13 25 -10 11 3 19 0 19 -6 0 -7 -4 -10 -9 -6
-12 7 -22 -8 -13 -21 4 -6 18 -7 32 -3 14 4 19 7 13 8 -7 1 -13 10 -13 21 0
11 -6 20 -14 20 -8 0 -22 3 -30 6 -12 4 -15 2 -10 -9z"/>
<path d="M532 3511 c-11 -7 -10 -9 3 -14 9 -4 14 -3 10 2 -3 5 1 12 7 14 7 3
9 6 3 6 -5 0 -16 -3 -23 -8z"/>
<path d="M648 2513 c6 -2 18 -2 25 0 6 3 1 5 -13 5 -14 0 -19 -2 -12 -5z"/>
<path d="M587 2503 c-11 -10 -8 -45 3 -38 6 4 7 11 4 17 -4 6 0 14 7 19 8 5 9
9 3 9 -6 0 -14 -3 -17 -7z"/>
</g>
</svg>
