<?xml version="1.0" standalone="no"?>
<!DOCTYPE svg PUBLIC "-//W3C//DTD SVG 20010904//EN"
 "http://www.w3.org/TR/2001/REC-SVG-20010904/DTD/svg10.dtd">
<svg version="1.0" xmlns="http://www.w3.org/2000/svg"
 width="220.000000pt" height="220.000000pt" viewBox="0 0 220.000000 220.000000"
 preserveAspectRatio="xMidYMid meet">

<g transform="translate(0.000000,220.000000) scale(0.100000,-0.100000)"
fill="#fff" stroke="none">
<path d="M932 1960 c-95 -25 -184 -69 -256 -128 -32 -26 -69 -53 -82 -60 -13
-7 -24 -22 -24 -32 0 -36 -23 -70 -76 -110 -110 -83 -196 -209 -246 -360 -30
-89 -32 -104 -32 -245 -1 -127 3 -162 22 -228 26 -91 51 -144 81 -171 12 -11
21 -25 21 -31 0 -11 53 -67 145 -155 41 -38 111 -72 230 -110 55 -17 129 -45
165 -60 152 -67 318 -62 470 14 36 18 88 41 116 50 28 9 60 23 70 31 10 8 31
15 47 15 24 0 39 5 83 29 147 80 273 240 289 368 3 27 13 70 22 96 21 66 13
260 -16 372 -44 169 -159 340 -279 415 -22 14 -52 44 -67 67 -67 107 -222 209
-360 238 -97 20 -234 18 -323 -5z m340 -46 c109 -26 214 -93 284 -183 47 -60
50 -75 8 -42 -15 11 -33 21 -42 21 -8 0 -20 7 -27 16 -6 9 -22 18 -36 19 -13
2 -62 18 -109 36 -77 29 -96 32 -202 33 -65 1 -118 4 -118 7 0 3 11 23 25 43
13 20 22 36 18 36 -14 0 -72 -51 -78 -69 -4 -13 -19 -20 -54 -25 -26 -3 -51
-10 -55 -14 -4 -4 -29 -12 -54 -18 -26 -6 -56 -15 -67 -20 -18 -7 -19 -6 -6 9
8 10 11 20 8 24 -9 8 -37 -16 -37 -32 0 -7 -7 -15 -14 -18 -10 -4 -13 -1 -9 9
8 21 -15 17 -29 -6 -15 -24 -27 -26 -24 -5 6 42 113 120 221 160 119 45 263
52 397 19z m73 -154 c50 -18 98 -33 109 -34 10 -1 24 -10 31 -19 7 -9 20 -17
30 -17 9 0 28 -9 42 -20 14 -11 33 -20 43 -20 27 0 105 -57 162 -119 90 -96
144 -218 173 -385 20 -115 19 -207 -1 -254 -9 -20 -18 -57 -20 -82 -8 -97 -68
-205 -152 -277 -27 -23 -61 -45 -76 -49 -14 -3 -26 -13 -26 -20 0 -8 -8 -17
-17 -20 -10 -3 -28 -11 -40 -16 -17 -8 -26 -8 -39 3 -14 11 -17 11 -26 -4 -8
-16 -77 -57 -95 -57 -19 0 77 83 115 100 24 11 61 33 82 50 21 16 42 30 47 30
5 0 20 11 33 26 18 18 21 27 12 33 -9 5 -7 17 8 46 24 47 27 73 6 56 -11 -9
-15 8 -25 97 -7 59 -14 120 -17 137 -6 41 8 22 42 -57 28 -66 49 -90 40 -45
-3 12 -8 54 -11 92 -7 76 -41 250 -52 268 -4 7 0 8 11 4 31 -12 126 -20 126
-11 0 5 -24 21 -53 37 -28 15 -68 41 -87 57 l-35 29 35 1 c19 0 42 4 49 9 12
8 8 11 -15 17 -51 12 -104 44 -162 97 -32 29 -68 60 -82 69 -20 14 -22 17 -7
17 25 1 110 46 128 67 13 16 12 17 -6 10 -88 -33 -196 -33 -282 0 -50 19 -95
28 -168 33 l-100 6 -22 45 c-25 49 -30 95 -10 104 6 3 57 4 112 2 82 -3 117
-10 190 -36z m-365 -9 c0 -22 5 -52 10 -67 10 -25 9 -26 -12 -20 -13 3 -68 11
-123 16 -55 6 -113 14 -130 18 -30 9 -30 9 26 30 31 11 73 24 94 28 21 4 50
13 64 20 14 8 36 14 49 14 19 0 22 -5 22 -39z m-366 -65 c-3 -9 -10 -16 -15
-16 -5 0 -4 9 3 20 14 22 21 20 12 -4z m94 -65 c24 -29 42 -55 40 -56 -2 -2
-36 -10 -75 -19 -39 -8 -95 -26 -125 -40 -54 -26 -128 -81 -128 -96 0 -4 27 3
60 17 33 13 84 26 113 30 l52 5 -37 -26 c-51 -36 -126 -64 -208 -77 -39 -7
-70 -15 -70 -19 0 -20 150 -27 208 -11 17 5 32 6 32 1 0 -5 -4 -10 -8 -12 -15
-6 -94 -112 -117 -158 -13 -25 -31 -73 -40 -105 -9 -33 -20 -68 -26 -78 -11
-21 -3 -73 13 -83 5 -4 -4 -21 -23 -40 -18 -19 -28 -34 -23 -34 13 0 103 56
130 82 l22 19 21 -65 c12 -36 21 -67 21 -69 0 -3 -14 -7 -30 -11 -67 -13 -72
-129 -9 -215 35 -49 95 -91 152 -105 29 -8 55 -25 84 -57 l43 -46 -79 28
c-115 41 -175 73 -189 103 -7 16 -20 26 -33 26 -12 0 -23 8 -26 20 -3 11 -9
20 -14 20 -17 0 -56 53 -52 70 3 13 -4 23 -25 34 -70 36 -122 266 -102 448 20
173 86 321 190 428 57 58 187 151 205 146 6 -1 29 -26 53 -55z m521 -203 c17
-34 39 -92 50 -128 l18 -65 -41 -37 c-23 -20 -38 -39 -34 -44 4 -4 19 5 32 19
32 34 88 57 145 58 45 1 45 1 16 11 -16 6 -31 11 -32 12 -1 1 -9 37 -18 81 -9
44 -25 100 -36 124 -11 24 -18 46 -16 48 9 8 101 -120 132 -182 36 -75 53
-146 57 -237 2 -32 6 -58 9 -58 17 0 49 119 49 180 0 64 15 39 36 -60 24 -112
24 -335 1 -440 -23 -104 -85 -225 -146 -287 -96 -98 -209 -143 -358 -143 -282
0 -459 199 -492 551 -14 150 15 363 59 429 12 19 12 18 0 -55 -10 -63 -4 -155
11 -155 5 0 9 17 9 38 0 59 28 160 63 231 31 65 139 189 200 233 l29 21 -16
-31 c-37 -71 -64 -292 -36 -292 6 0 10 17 10 38 0 93 47 205 118 284 l36 40
57 -60 c31 -33 71 -89 88 -124z m100 -83 c33 -86 33 -105 3 -105 -14 0 -20 16
-29 83 -6 45 -15 91 -19 101 -5 12 -4 17 3 13 6 -4 25 -45 42 -92z m-829 -269
c-19 -51 -69 -143 -84 -155 -15 -12 -15 -10 -2 27 20 57 45 103 69 130 26 28
29 28 17 -2z m1190 -288 c0 -3 -8 -4 -18 -1 -14 3 -18 11 -14 30 l5 26 13 -24
c7 -13 13 -27 14 -31z m-1110 -65 c35 -54 41 -82 8 -33 -31 45 -52 57 -72 41
-18 -15 -21 -47 -6 -56 6 -3 10 2 10 13 0 26 10 33 30 22 33 -18 32 -39 -3
-55 l-32 -15 38 3 c36 3 48 -5 27 -18 -33 -21 9 -96 65 -116 38 -14 49 -35 13
-23 -44 13 -93 42 -120 71 -74 77 -78 213 -7 213 12 0 30 -17 49 -47z m1113
29 c44 -48 26 -123 -44 -186 -46 -43 -121 -83 -113 -62 3 8 16 17 29 20 57 14
109 97 70 112 -24 10 -17 22 9 17 13 -3 27 0 30 6 4 7 -1 11 -13 11 -24 0 -33
13 -25 34 8 22 42 20 46 -1 2 -12 6 -14 11 -7 4 7 -2 22 -12 35 l-19 24 -23
-20 c-13 -12 -19 -14 -14 -5 25 45 42 51 68 22z m-1082 -162 c5 0 9 6 9 13 0
10 40 -68 40 -79 0 -11 -20 -1 -44 21 -17 16 -26 34 -25 52 1 17 3 21 6 11 2
-10 9 -18 14 -18z m1000 10 c6 0 7 5 4 10 -3 6 -1 10 4 10 21 0 10 -29 -20
-55 -17 -14 -33 -24 -35 -22 -3 2 3 21 12 43 9 21 19 33 21 27 3 -7 9 -13 14
-13z"/>
<path d="M1890 1145 c0 -38 13 -95 21 -95 15 0 10 75 -6 96 -14 19 -14 19 -15
-1z"/>
<path d="M1844 1134 c3 -9 6 -31 6 -51 0 -23 4 -33 13 -31 18 7 21 35 7 69
-13 29 -37 42 -26 13z"/>
<path d="M1803 1106 c4 -10 7 -26 7 -37 0 -10 5 -19 11 -19 15 0 6 63 -10 68
-10 3 -12 0 -8 -12z"/>
<path d="M1895 973 c-4 -27 -9 -56 -12 -65 -2 -10 0 -18 6 -18 11 0 31 62 31
97 0 43 -19 32 -25 -14z"/>
<path d="M1845 964 c-6 -44 -2 -64 11 -51 11 11 16 84 6 91 -6 3 -13 -13 -17
-40z"/>
<path d="M1806 984 c-3 -9 -6 -28 -6 -42 1 -26 1 -26 15 -8 17 22 20 52 6 60
-5 3 -12 -1 -15 -10z"/>
<path d="M1765 664 c-15 -19 -24 -38 -20 -42 9 -9 55 45 55 64 0 21 -5 18 -35
-22z"/>
<path d="M1797 638 c-29 -41 -30 -61 -2 -38 22 18 47 68 37 73 -4 3 -20 -13
-35 -35z"/>
<path d="M1726 561 c-16 -17 -26 -34 -22 -38 9 -9 59 42 55 56 -3 7 -17 -1
-33 -18z"/>
<path d="M288 984 c-11 -10 -10 -63 3 -106 12 -47 32 -51 24 -5 -3 17 -9 52
-13 75 -4 24 -10 40 -14 36z"/>
<path d="M330 934 c0 -36 15 -74 29 -74 4 0 3 25 -2 55 -12 62 -27 73 -27 19z"/>
<path d="M410 815 c0 -21 17 -45 32 -45 14 0 9 17 -12 41 -19 23 -19 23 -20 4z"/>
<path d="M370 796 c0 -23 25 -54 36 -43 6 5 -23 67 -31 67 -3 0 -5 -11 -5 -24z"/>
<path d="M320 786 c0 -25 34 -75 44 -65 5 5 -32 89 -40 89 -2 0 -4 -11 -4 -24z"/>
<path d="M780 1240 c-22 -7 -20 -8 15 -9 52 -2 107 -22 149 -55 48 -37 56 -32
16 9 -45 46 -128 72 -180 55z"/>
<path d="M1037 1084 c3 -27 0 -67 -6 -89 -9 -33 -8 -43 7 -65 l17 -25 9 62 c9
67 3 119 -18 148 -12 16 -13 13 -9 -31z"/>
<path d="M1285 1059 c-40 -36 -48 -61 -9 -30 14 11 40 23 58 26 39 8 112 -19
127 -46 5 -11 14 -19 19 -19 6 0 0 15 -12 34 -48 73 -123 87 -183 35z"/>
<path d="M763 1046 c-33 -28 -69 -86 -54 -86 6 0 11 5 11 10 0 18 93 70 125
70 17 0 48 -9 68 -19 46 -24 44 -5 -3 27 -46 31 -109 30 -147 -2z"/>
<path d="M1330 944 c0 -13 -8 -15 -35 -12 -49 6 -44 -10 5 -18 22 -4 40 -11
40 -17 0 -5 7 -4 15 3 9 8 29 10 50 7 19 -3 35 -2 35 2 0 4 12 13 26 20 33 15
26 25 -9 12 -18 -7 -27 -7 -31 2 -5 9 -7 9 -12 0 -8 -19 -64 -17 -64 2 0 8 -4
15 -10 15 -5 0 -10 -7 -10 -16z"/>
<path d="M1111 931 c-8 -6 -9 -11 -3 -15 6 -3 14 -1 17 5 9 14 2 20 -14 10z"/>
<path d="M920 853 c-60 -9 -167 -37 -206 -53 -36 -16 -44 -25 -49 -53 -24
-125 94 -324 229 -390 119 -59 282 -59 400 -1 109 53 234 223 252 341 5 35 3
45 -18 66 -30 30 -119 64 -216 83 -67 13 -324 18 -392 7z m439 -33 c25 -8 46
-20 48 -30 3 -13 15 -17 41 -16 31 1 38 -3 40 -22 3 -17 8 -21 23 -17 14 5 19
2 19 -12 0 -65 -56 -153 -96 -153 -15 0 -16 2 -5 9 9 6 10 11 2 15 -21 13 -11
22 20 18 22 -3 30 -1 25 7 -4 6 -16 11 -26 11 -10 0 -22 5 -25 10 -4 6 7 10
24 10 17 0 31 5 31 10 0 6 -15 10 -33 10 -18 0 -43 7 -55 16 -46 32 -137 56
-237 61 -131 7 -229 -9 -313 -53 -37 -19 -80 -34 -99 -34 -22 0 -32 -4 -27
-11 3 -6 22 -9 40 -7 39 5 41 -10 3 -30 l-24 -13 28 4 c15 2 27 0 27 -4 0 -5
-4 -9 -10 -9 -5 0 -10 -4 -10 -10 0 -5 7 -6 17 -3 11 4 14 3 9 -5 -4 -7 -19
-12 -33 -12 -15 0 -24 3 -20 6 3 3 -5 16 -19 28 -25 21 -44 77 -43 131 0 26 1
28 12 13 11 -14 15 -13 30 14 13 23 23 29 44 26 19 -2 34 4 48 20 13 15 38 26
70 32 72 13 421 5 474 -10z m-559 -14 c0 -3 -4 -8 -10 -11 -5 -3 -10 -1 -10 4
0 6 5 11 10 11 6 0 10 -2 10 -4z m-90 -36 c0 -5 -5 -10 -11 -10 -5 0 -7 5 -4
10 3 6 8 10 11 10 2 0 4 -4 4 -10z m545 -166 c91 -31 153 -92 141 -139 -10
-38 -35 -46 -90 -30 -108 33 -343 27 -431 -9 -43 -18 -65 -5 -65 39 0 66 73
120 209 155 51 13 177 5 236 -16z m43 -184 c17 -7 32 -15 32 -20 0 -4 -27 -19
-60 -34 -109 -49 -264 -45 -370 9 l-45 23 30 12 c54 21 139 29 260 25 66 -2
135 -9 153 -15z"/>
</g>
</svg>
