<?xml version="1.0" standalone="no"?>
<!DOCTYPE svg PUBLIC "-//W3C//DTD SVG 20010904//EN"
 "http://www.w3.org/TR/2001/REC-SVG-20010904/DTD/svg10.dtd">
<svg version="1.0" xmlns="http://www.w3.org/2000/svg"
 width="220.000000pt" height="220.000000pt" viewBox="0 0 220.000000 220.000000"
 preserveAspectRatio="xMidYMid meet">

<g transform="translate(0.000000,220.000000) scale(0.100000,-0.100000)"
fill="#000000" stroke="none">
<path d="M870 1970 c-8 -5 -31 -10 -51 -10 -23 0 -42 -7 -54 -20 -10 -11 -29
-20 -42 -20 -13 0 -39 -15 -59 -32 -19 -18 -47 -44 -61 -56 -25 -23 -25 -26
-20 -120 3 -54 15 -155 27 -227 14 -87 24 -216 30 -389 l10 -259 -25 -29 c-29
-34 -31 -52 -10 -91 13 -25 12 -30 -10 -64 -14 -20 -25 -42 -25 -50 0 -8 19
-37 42 -64 39 -46 42 -54 39 -101 -1 -28 1 -93 4 -144 l7 -94 439 0 c345 0
439 3 439 13 0 28 -41 76 -84 96 -37 18 -45 27 -44 47 2 24 4 24 100 24 157 0
231 24 282 93 17 23 21 43 21 105 0 66 -4 85 -29 129 -16 29 -50 76 -76 105
-45 50 -47 57 -52 123 -9 124 -82 226 -203 282 -47 22 -78 28 -145 31 -125 5
-183 -19 -277 -114 -39 -41 -78 -74 -86 -74 -19 0 -27 82 -27 275 l0 151 28
26 c15 14 52 44 84 66 50 37 57 47 67 92 9 42 8 56 -4 81 -9 16 -13 34 -10 39
3 5 -3 31 -14 56 -12 26 -21 52 -21 59 0 45 -145 94 -190 65z m91 -47 c45 -16
49 -21 68 -73 27 -74 15 -126 -20 -84 -11 13 -10 17 4 25 24 14 21 32 -3 24
-17 -5 -20 -2 -20 21 0 21 -3 25 -11 17 -7 -7 -8 -26 -4 -52 7 -45 39 -75 72
-69 12 2 18 -3 17 -14 -3 -73 -4 -75 -51 -106 -27 -18 -65 -47 -85 -64 l-38
-33 -6 -103 -7 -103 -34 33 -33 32 30 31 c34 35 37 47 15 65 -13 11 -21 6 -52
-28 l-36 -41 -37 19 c-27 14 -40 16 -48 8 -13 -13 -15 -5 -37 138 -17 114 -20
244 -5 244 5 0 25 14 43 30 19 17 44 30 55 30 12 0 30 10 42 22 14 15 30 21
53 20 18 -1 42 4 52 13 25 18 19 18 76 -2z m-232 -559 c2 -2 -7 -19 -19 -39
-12 -20 -23 -35 -25 -33 -1 2 -5 27 -9 56 l-7 53 28 -17 c15 -10 30 -19 32
-20z m88 -66 c25 -24 35 -29 46 -20 11 9 15 -16 26 -140 7 -83 15 -157 18
-164 3 -8 -6 -16 -24 -20 -41 -10 -115 -49 -151 -79 l-30 -26 -6 53 c-11 95
-12 368 -1 358 15 -16 24 -12 51 30 15 22 29 40 32 40 3 0 21 -14 39 -32z
m619 -118 c109 -48 175 -136 188 -250 l7 -55 -19 30 c-98 156 -370 240 -539
165 l-46 -20 25 32 c91 118 249 158 384 98z m-121 -175 c80 -22 171 -64 241
-113 80 -54 180 -161 206 -219 27 -61 29 -138 4 -176 -33 -49 -69 -61 -199
-65 -131 -5 -226 5 -192 19 11 4 40 10 65 14 86 11 140 67 93 94 -14 8 -8 9
20 4 36 -5 51 7 26 23 -12 7 -53 94 -47 99 1 1 21 6 42 11 50 12 56 29 14 38
-22 4 -54 29 -108 86 -97 101 -159 132 -263 132 -55 -1 -92 -8 -156 -32 -67
-24 -82 -27 -77 -15 9 23 -11 55 -34 55 -15 0 -20 7 -20 25 0 20 6 25 38 30
20 4 42 8 47 11 23 9 245 -6 300 -21z m-315 -398 c0 -5 -7 -4 -15 3 -8 7 -15
20 -15 29 1 13 3 13 15 -3 8 -11 15 -24 15 -29z m530 -77 c0 -17 -58 -40 -100
-40 -27 0 -53 -8 -78 -25 -20 -14 -41 -25 -47 -25 -14 0 30 29 100 67 58 31
125 44 125 23z m-404 -22 c9 19 24 14 24 -8 0 -24 8 -25 32 -3 17 15 18 15 18
-10 0 -30 3 -32 32 -16 19 10 20 9 14 -15 -7 -28 2 -33 23 -13 11 10 11 8 2
-10 -14 -27 -29 -28 -102 -7 -114 32 -127 43 -92 83 15 19 17 19 30 3 11 -12
16 -14 19 -4z"/>
<path d="M1530 1035 c0 -19 4 -35 9 -35 13 0 23 34 15 54 -11 28 -24 18 -24
-19z"/>
<path d="M1565 1010 c-8 -26 4 -48 16 -29 12 19 11 49 0 49 -5 0 -12 -9 -16
-20z"/>
<path d="M1590 960 c0 -11 5 -20 10 -20 6 0 10 9 10 20 0 11 -4 20 -10 20 -5
0 -10 -9 -10 -20z"/>
<path d="M1630 573 c0 -25 1 -26 16 -11 9 9 13 21 10 27 -13 20 -26 11 -26
-16z"/>
<path d="M1680 588 c0 -7 -3 -24 -7 -38 -6 -22 -5 -24 10 -11 18 15 23 61 7
61 -5 0 -10 -6 -10 -12z"/>
<path d="M1730 572 c0 -15 -7 -38 -16 -50 -18 -27 -4 -29 19 -4 18 20 23 82 7
82 -5 0 -10 -12 -10 -28z"/>
</g>
</svg>
